<svg width="16" height="29" viewBox="0 0 16 29" fill="none" xmlns="http://www.w3.org/2000/svg">
<g clip-path="url(#clip0_13_13)">
<path d="M7.63621 8.29279C7.44874 8.48031 7.34343 8.73462 7.34343 8.99979C7.34343 9.26495 7.44874 9.51926 7.63621 9.70679L12.5862 14.6568L7.63621 19.6068C7.45406 19.7954 7.35326 20.048 7.35554 20.3102C7.35782 20.5724 7.46299 20.8232 7.64839 21.0086C7.8338 21.194 8.08462 21.2992 8.34681 21.3015C8.60901 21.3037 8.86161 21.2029 9.05021 21.0208L14.7072 15.3638C14.8947 15.1763 15 14.922 15 14.6568C15 14.3916 14.8947 14.1373 14.7072 13.9498L9.05021 8.29279C8.86269 8.10532 8.60838 8 8.34321 8C8.07805 8 7.82374 8.10532 7.63621 8.29279Z" fill="#44D62C"/>
<path d="M1.22944 9.37685C1.08253 9.51784 1 9.70902 1 9.90837C1 10.1077 1.08253 10.2989 1.22944 10.4399L5.10846 14.1613L1.22944 17.8827C1.08669 18.0245 1.00771 18.2144 1.00949 18.4115C1.01128 18.6086 1.09369 18.7972 1.23899 18.9365C1.38428 19.0759 1.58083 19.155 1.78629 19.1567C1.99176 19.1584 2.18971 19.0826 2.33751 18.9457L6.77056 14.6928C6.91747 14.5518 7 14.3606 7 14.1613C7 13.9619 6.91747 13.7707 6.77056 13.6298L2.33751 9.37685C2.19055 9.23591 1.99127 9.15674 1.78347 9.15674C1.57568 9.15674 1.37639 9.23591 1.22944 9.37685Z" fill="#44D62C"/>
</g>
<defs>
<clipPath id="clip0_13_13">
<rect width="29" height="16" fill="white" transform="translate(16) rotate(90)"/>
</clipPath>
</defs>
</svg>
