<svg width="59" height="67" viewBox="0 0 59 67" fill="none" xmlns="http://www.w3.org/2000/svg">
<path d="M32.844 24.344L31.416 25.125L32.844 25.906L33.625 27.334L34.406 25.906L35.834 25.125L34.406 24.344L33.626 22.916L32.844 24.344ZM19 33C19 27.477 23.477 23 29 23H30.734L29.866 24.5C29.287 25.5 29 26.689 29 28C28.9998 29.0336 29.2286 30.0545 29.6698 30.9892C30.1111 31.9239 30.7538 32.7493 31.5519 33.4061C32.35 34.0629 33.2837 34.5348 34.2858 34.7879C35.288 35.041 36.3337 35.0691 37.348 34.87L39.03 34.543L38.487 36.169C37.8222 38.1587 36.5485 39.889 34.8461 41.1149C33.1437 42.3408 31.0989 43.0003 29.001 43C23.478 43 19 38.523 19 33ZM37.501 27.416L38.415 29.086L40.084 30L38.414 30.914L37.5 32.584L36.587 30.914L34.917 30L36.587 29.086L37.501 27.416Z" fill="#373A3C"/>
</svg>
