<svg width="59" height="67" viewBox="0 0 59 67" fill="none" xmlns="http://www.w3.org/2000/svg">
<path d="M29.5 20.7441C29.7984 20.7441 30.0845 20.8663 30.2955 21.0838C30.5065 21.3013 30.625 21.5962 30.625 21.9038V24.223C30.625 24.5305 30.5065 24.8255 30.2955 25.043C30.0845 25.2604 29.7984 25.3826 29.5 25.3826C29.2016 25.3826 28.9155 25.2604 28.7045 25.043C28.4935 24.8255 28.375 24.5305 28.375 24.223V21.9038C28.375 21.5962 28.4935 21.3013 28.7045 21.0838C28.9155 20.8663 29.2016 20.7441 29.5 20.7441ZM16 34.6595C16 34.352 16.1185 34.057 16.3295 33.8396C16.5405 33.6221 16.8266 33.4999 17.125 33.4999H19.375C19.6734 33.4999 19.9595 33.6221 20.1705 33.8396C20.3815 34.057 20.5 34.352 20.5 34.6595C20.5 34.9671 20.3815 35.262 20.1705 35.4795C19.9595 35.697 19.6734 35.8191 19.375 35.8191H17.125C16.8266 35.8191 16.5405 35.697 16.3295 35.4795C16.1185 35.262 16 34.9671 16 34.6595ZM38.5 34.6595C38.5 34.352 38.6185 34.057 38.8295 33.8396C39.0405 33.6221 39.3266 33.4999 39.625 33.4999H41.875C42.1734 33.4999 42.4595 33.6221 42.6705 33.8396C42.8815 34.057 43 34.352 43 34.6595C43 34.9671 42.8815 35.262 42.6705 35.4795C42.4595 35.697 42.1734 35.8191 41.875 35.8191H39.625C39.3266 35.8191 39.0405 35.697 38.8295 35.4795C38.6185 35.262 38.5 34.9671 38.5 34.6595ZM39.0456 24.8202C39.2565 25.0376 39.375 25.3325 39.375 25.64C39.375 25.9475 39.2565 26.2424 39.0456 26.4599L37.4549 28.0996C37.2427 28.3108 36.9585 28.4277 36.6635 28.4251C36.3686 28.4224 36.0864 28.3005 35.8778 28.0855C35.6692 27.8705 35.5509 27.5796 35.5484 27.2756C35.5458 26.9715 35.6592 26.6786 35.8641 26.4599L37.4549 24.8202C37.6658 24.6028 37.9519 24.4807 38.2502 24.4807C38.5486 24.4807 38.8347 24.6028 39.0456 24.8202ZM19.9544 24.8202C20.1653 24.6028 20.4514 24.4807 20.7498 24.4807C21.0481 24.4807 21.3342 24.6028 21.5451 24.8202L23.1359 26.4599C23.2458 26.5662 23.334 26.6942 23.395 26.8362C23.456 26.9783 23.4887 27.1316 23.4912 27.2869C23.4936 27.4423 23.4658 27.5966 23.4092 27.7406C23.3527 27.8847 23.2687 28.0155 23.1621 28.1254C23.0556 28.2354 22.9287 28.3221 22.789 28.3804C22.6493 28.4388 22.4996 28.4677 22.3489 28.4652C22.1981 28.4628 22.0494 28.4292 21.9115 28.3664C21.7737 28.3036 21.6494 28.2128 21.5462 28.0996L19.9544 26.461C19.7435 26.2436 19.625 25.9487 19.625 25.6412C19.625 25.3337 19.7435 25.0376 19.9544 24.8202ZM23.875 43.9364C23.875 43.6289 23.9935 43.3339 24.2045 43.1165C24.4155 42.899 24.7016 42.7768 25 42.7768H34C34.2984 42.7768 34.5845 42.899 34.7955 43.1165C35.0065 43.3339 35.125 43.6289 35.125 43.9364C35.125 44.244 35.0065 44.539 34.7955 44.7564C34.5845 44.9739 34.2984 45.0961 34 45.0961H25C24.7016 45.0961 24.4155 44.9739 24.2045 44.7564C23.9935 44.539 23.875 44.244 23.875 43.9364ZM38.5 39.298H35.9609C36.8836 37.9384 37.3774 36.3188 37.375 34.6595C37.375 30.1811 33.8447 26.5422 29.5 26.5422C25.1553 26.5422 21.625 30.1811 21.625 34.6595C21.625 36.3792 22.1414 37.9818 23.0279 39.298H20.5C20.2016 39.298 19.9155 39.4202 19.7045 39.6376C19.4935 39.8551 19.375 40.1501 19.375 40.4576C19.375 40.7652 19.4935 41.0601 19.7045 41.2776C19.9155 41.495 20.2016 41.6172 20.5 41.6172H38.5C38.7984 41.6172 39.0845 41.495 39.2955 41.2776C39.5065 41.0601 39.625 40.7652 39.625 40.4576C39.625 40.1501 39.5065 39.8551 39.2955 39.6376C39.0845 39.4202 38.7984 39.298 38.5 39.298Z" fill="#FAFBF5"/>
</svg>
