<svg width="66" height="67" viewBox="0 0 66 67" fill="none" xmlns="http://www.w3.org/2000/svg">
<path d="M46.75 17L46.75 30.75C46.75 31.4793 46.4603 32.1788 45.9445 32.6945C45.4288 33.2103 44.7293 33.5 44 33.5C43.2707 33.5 42.5712 33.2103 42.0555 32.6945C41.5397 32.1788 41.25 31.4793 41.25 30.75L41.25 17C41.25 16.2707 41.5397 15.5712 42.0555 15.0555C42.5712 14.5397 43.2707 14.25 44 14.25C44.7293 14.25 45.4288 14.5397 45.9445 15.0555C46.4603 15.5712 46.75 16.2707 46.75 17ZM24.75 36.25L24.75 50C24.75 50.7293 24.4603 51.4288 23.9445 51.9445C23.4288 52.4603 22.7293 52.75 22 52.75C21.2707 52.75 20.5712 52.4603 20.0555 51.9445C19.5397 51.4288 19.25 50.7293 19.25 50L19.25 36.25C19.25 35.5207 19.5397 34.8212 20.0555 34.3055C20.5712 33.7897 21.2707 33.5 22 33.5C22.7293 33.5 23.4288 33.7897 23.9445 34.3055C24.4603 34.8212 24.75 35.5207 24.75 36.25ZM35.75 17L35.75 50C35.75 50.7293 35.4603 51.4288 34.9445 51.9445C34.4288 52.4603 33.7293 52.75 33 52.75C32.2707 52.75 31.5712 52.4603 31.0555 51.9445C30.5397 51.4288 30.25 50.7293 30.25 50L30.25 17C30.25 16.2707 30.5397 15.5712 31.0555 15.0555C31.5712 14.5397 32.2707 14.25 33 14.25C33.7293 14.25 34.4288 14.5397 34.9445 15.0555C35.4603 15.5712 35.75 16.2707 35.75 17Z" fill="#44D62C"/>
</svg>
