<svg width="24" height="25" viewBox="0 0 24 25" fill="none" xmlns="http://www.w3.org/2000/svg">
<path d="M10.95 13.93L9.154 12.14C9.06067 12.0467 8.947 11.9967 8.813 11.99C8.67834 11.9833 8.556 12.0353 8.446 12.146C8.33934 12.2527 8.286 12.3707 8.286 12.5C8.286 12.6293 8.33934 12.7473 8.446 12.854L10.384 14.792C10.546 14.9533 10.7347 15.034 10.95 15.034C11.1653 15.034 11.354 14.9533 11.516 14.792L15.554 10.754C15.6513 10.6567 15.7023 10.542 15.707 10.41C15.7117 10.2773 15.6607 10.156 15.554 10.046C15.444 9.93601 15.325 9.88001 15.197 9.87801C15.069 9.87601 14.9503 9.93001 14.841 10.04L10.95 13.93ZM8.67 21.116L7.354 18.916L4.873 18.392C4.67434 18.3553 4.516 18.2487 4.398 18.072C4.28 17.896 4.23133 17.7087 4.252 17.51L4.489 14.954L2.806 13.034C2.66467 12.8893 2.594 12.7113 2.594 12.5C2.594 12.2887 2.66467 12.1107 2.806 11.966L4.489 10.046L4.252 7.49101C4.232 7.29168 4.28067 7.10401 4.398 6.92801C4.516 6.75201 4.67434 6.64535 4.873 6.60801L7.353 6.08501L8.669 3.88501C8.777 3.70635 8.922 3.58301 9.104 3.51501C9.286 3.44635 9.47433 3.45535 9.669 3.54201L12 4.52701L14.33 3.54201C14.5253 3.45535 14.714 3.44635 14.896 3.51501C15.078 3.58301 15.223 3.70635 15.331 3.88501L16.646 6.08501L19.127 6.60801C19.3257 6.64535 19.484 6.75201 19.602 6.92801C19.72 7.10401 19.7687 7.29168 19.748 7.49101L19.512 10.046L21.194 11.966C21.3353 12.1107 21.406 12.2887 21.406 12.5C21.406 12.7113 21.3353 12.8897 21.194 13.035L19.512 14.954L19.748 17.509C19.768 17.7083 19.7193 17.896 19.602 18.072C19.484 18.2487 19.3257 18.3553 19.127 18.392L16.647 18.916L15.331 21.116C15.223 21.294 15.078 21.4173 14.896 21.486C14.714 21.5547 14.5257 21.5453 14.331 21.458L12 20.473L9.67 21.458C9.47467 21.5447 9.286 21.5537 9.104 21.485C8.922 21.417 8.777 21.2937 8.669 21.115" fill="#1DA1F2"/>
</svg>
