<svg width="24" height="24" viewBox="0 0 24 24" fill="none" xmlns="http://www.w3.org/2000/svg">
    <path
        d="M20.07 6.34997H15V7.75997H20.09L20.07 6.34997ZM19 16.05C18.6154 16.3048 18.1612 16.4341 17.7 16.42C17.3947 16.4518 17.0862 16.4203 16.7937 16.3273C16.5011 16.2344 16.2309 16.0821 16 15.88C15.5739 15.3953 15.3518 14.7647 15.38 14.12H22C22.0472 13.4485 21.9899 12.7738 21.83 12.12C21.6744 11.4982 21.403 10.9112 21.03 10.39C20.6534 9.88528 20.1681 9.47175 19.61 9.17997C18.9881 8.87459 18.3028 8.72041 17.61 8.72997C16.9584 8.72573 16.3124 8.85152 15.71 9.09997C15.1584 9.33222 14.6586 9.67219 14.24 10.1C13.8224 10.5361 13.499 11.0535 13.29 11.62C13.0657 12.2315 12.9539 12.8786 12.96 13.53C12.9493 14.1906 13.0577 14.8478 13.28 15.47C13.4695 16.0331 13.7685 16.5531 14.16 17C14.5659 17.4381 15.0648 17.7798 15.62 18C16.2391 18.2359 16.8976 18.3513 17.56 18.34C18.4894 18.3689 19.407 18.1256 20.2 17.64C21.0015 17.0714 21.5783 16.2399 21.83 15.29H19.62C19.5017 15.6041 19.284 15.871 19 16.05ZM15.57 11.93C15.6478 11.6806 15.777 11.4504 15.9493 11.2541C16.1215 11.0577 16.3329 10.8996 16.57 10.79C16.8842 10.6493 17.2259 10.581 17.57 10.59C17.8186 10.5687 18.0689 10.6015 18.3036 10.6861C18.5384 10.7707 18.7521 10.905 18.93 11.08C19.2702 11.4956 19.4883 11.9976 19.56 12.53H15.41C15.4262 12.3267 15.463 12.1257 15.52 11.93H15.57ZM10.28 11.45C10.789 11.238 11.2312 10.8925 11.56 10.45C11.8634 9.98051 12.0137 9.42845 11.99 8.86997C12.0089 8.36086 11.9096 7.8543 11.7 7.38997C11.5233 6.98788 11.2397 6.64199 10.88 6.38997C10.4993 6.12683 10.066 5.94942 9.61 5.86997C9.07087 5.75656 8.52088 5.7029 7.97 5.70997H2V18.29H8.1C8.65666 18.2898 9.21106 18.2193 9.75 18.08C10.2604 17.9469 10.7441 17.727 11.18 17.43C11.6026 17.1386 11.9462 16.7469 12.18 16.29C12.4403 15.7799 12.5676 15.2123 12.55 14.64C12.5689 13.9307 12.37 13.2327 11.98 12.64C11.5606 12.0439 10.9385 11.6209 10.23 11.45H10.28ZM4.77 7.85997H7.36C7.59798 7.85881 7.83559 7.87889 8.07 7.91997C8.28622 7.9509 8.49381 8.02577 8.68 8.13997C8.86035 8.24198 9.00648 8.39507 9.1 8.57997C9.21673 8.80135 9.27198 9.04998 9.26 9.29997C9.27863 9.5152 9.24572 9.73178 9.16399 9.93177C9.08225 10.1318 8.95405 10.3094 8.79 10.45C8.43212 10.696 8.00388 10.8189 7.57 10.8H4.77V7.85997ZM9.61 15.3C9.50646 15.5032 9.35127 15.6757 9.16 15.8C8.9603 15.9242 8.74027 16.0122 8.51 16.06C8.2541 16.1175 7.99226 16.1444 7.73 16.14H4.73V12.69H7.73C8.24482 12.6674 8.75322 12.8112 9.18 13.1C9.37281 13.273 9.52217 13.489 9.61599 13.7305C9.7098 13.972 9.74543 14.2322 9.72 14.49C9.74594 14.7648 9.7083 15.042 9.61 15.3Z"
        fill="#44D62C" className="hover:fill-green-600" />
</svg>